<?xml version="1.0" standalone="no"?>
<!DOCTYPE svg PUBLIC "-//W3C//DTD SVG 20010904//EN"
 "http://www.w3.org/TR/2001/REC-SVG-20010904/DTD/svg10.dtd">
<svg version="1.0" xmlns="http://www.w3.org/2000/svg"
 width="424.000000pt" height="424.000000pt" viewBox="0 0 424.000000 424.000000"
 preserveAspectRatio="xMidYMid meet">
<metadata>
Created by potrace 1.14, written by Peter Selinger 2001-2017
</metadata>
<g transform="translate(0.000000,424.000000) scale(0.100000,-0.100000)"
fill="#000000" stroke="none">
<path d="M1690 4205 c0 -24 5 -35 15 -35 17 0 20 -16 5 -25 -5 -3 -9 -27 -9
-54 1 -26 -2 -57 -5 -69 -4 -12 0 -42 9 -69 9 -26 13 -58 10 -71 -3 -13 -1
-30 5 -37 18 -22 8 -60 -15 -61 -37 -2 -40 -6 -10 -13 28 -6 31 -10 39 -66 5
-33 13 -62 17 -65 4 -3 9 -21 11 -40 2 -23 8 -35 18 -35 17 0 17 -2 6 -69 -7
-38 -17 -57 -47 -84 -30 -28 -36 -39 -27 -49 6 -7 7 -17 3 -21 -4 -4 -10 -1
-12 6 -9 24 -23 11 -23 -20 1 -30 2 -31 14 -15 19 25 27 9 31 -59 2 -38 -2
-59 -12 -69 -8 -8 -11 -19 -8 -25 8 -13 -13 -80 -26 -80 -15 0 -10 -33 10 -72
18 -36 18 -37 -2 -57 -17 -17 -18 -22 -7 -36 10 -12 10 -19 2 -27 -9 -9 -12
-7 -12 10 0 15 -6 22 -20 22 -22 0 -26 -20 -9 -37 13 -13 5 -43 -10 -43 -5 0
-11 12 -13 28 l-4 27 -12 -29 c-15 -36 -43 -58 -57 -46 -13 11 -125 0 -125
-12 0 -11 25 -21 58 -22 14 -1 27 -7 30 -15 3 -10 -4 -12 -34 -8 -22 3 -66 8
-99 10 -33 2 -68 7 -77 11 -14 6 -18 3 -18 -12 0 -11 7 -22 15 -26 10 -4 15
-20 15 -50 0 -27 6 -51 16 -60 20 -20 34 -20 34 -1 0 9 9 15 23 15 13 0 28 5
35 12 8 8 15 8 28 -3 9 -7 26 -18 38 -24 15 -7 22 -22 24 -47 2 -26 7 -35 17
-32 19 8 55 -14 49 -29 -8 -21 21 -68 33 -56 19 19 33 0 33 -44 0 -46 16 -41
22 8 4 28 5 28 18 -17 13 -43 15 -45 24 -25 6 11 25 24 42 29 17 4 39 17 49
28 22 24 35 26 35 5 0 -22 31 -31 44 -13 12 17 113 30 122 16 10 -15 24 2 24
30 0 16 12 38 30 56 l30 29 0 -25 c0 -15 7 -29 17 -32 13 -5 14 -9 4 -19 -9
-9 -14 -9 -21 3 -7 11 -12 12 -21 3 -17 -17 -4 -43 21 -43 33 0 55 28 51 67
-3 36 12 63 35 63 10 0 14 -13 14 -45 0 -32 4 -45 14 -45 11 0 13 9 9 34 -3
19 -2 60 1 90 7 51 10 56 32 56 28 0 30 -8 7 -26 -17 -13 -17 -13 0 -14 9 0
17 -4 17 -10 0 -5 8 -10 18 -10 16 1 15 2 -2 15 -14 10 -16 18 -9 27 17 21 -1
53 -28 53 -16 0 -23 5 -21 15 2 8 3 38 3 67 0 29 5 53 10 53 5 0 9 -4 9 -10 0
-5 5 -10 10 -10 14 0 12 28 -2 33 -20 7 -1 20 29 21 20 1 27 5 24 16 -3 8 -4
31 -3 50 5 91 3 102 -18 117 -17 12 -20 21 -15 42 5 20 4 23 -5 15 -12 -12
-50 -8 -50 5 0 4 5 12 12 19 8 8 8 15 -3 28 -11 13 -11 18 -1 21 6 3 12 9 12
14 0 4 -7 6 -15 3 -22 -9 -39 42 -25 80 8 24 7 32 -4 38 -8 5 -25 29 -38 54
-12 26 -28 49 -35 51 -17 7 -17 23 0 23 7 0 22 6 32 14 17 12 17 15 3 35 -23
33 -4 111 28 111 8 0 14 7 14 16 0 8 -5 12 -11 9 -13 -9 -69 14 -69 28 0 6 14
22 32 37 22 18 29 32 25 43 -5 15 -10 15 -26 5 -23 -14 -40 -3 -23 14 19 19
14 36 -15 50 -15 7 -29 22 -32 33 -3 16 -1 17 11 8 8 -7 19 -8 28 -3 22 13 -4
63 -29 55 -22 -7 -51 3 -51 17 0 6 14 8 35 5 19 -3 35 -2 35 2 0 12 -50 44
-57 37 -3 -3 -14 -1 -24 5 -25 13 -28 95 -3 85 9 -3 22 -6 30 -6 8 0 14 -5 14
-10 0 -6 -8 -10 -17 -8 -10 2 -19 -4 -21 -14 -2 -11 3 -18 11 -18 8 0 20 -7
27 -15 21 -26 43 -19 36 11 -7 25 7 54 25 54 5 0 9 -9 9 -19 0 -10 9 -29 20
-42 l20 -24 -6 28 c-5 23 -3 27 14 27 11 0 28 -7 36 -16 9 -8 16 -11 16 -5 0
5 -9 16 -20 24 -16 11 -18 16 -7 20 19 7 29 47 12 47 -14 0 -45 53 -45 77 0 7
7 13 15 13 25 0 17 24 -12 38 -39 18 -132 16 -139 -3 -4 -8 -10 -15 -15 -15
-5 0 -9 7 -9 15 0 13 -24 15 -160 15 l-160 0 0 -35z m395 -80 c1 -40 -1 -43
-16 -29 -9 8 -24 12 -33 8 -9 -3 -16 -1 -16 5 0 6 0 14 0 19 0 4 10 7 23 7 15
0 23 7 25 23 6 37 17 15 17 -33z m-155 -9 c0 -11 -19 -15 -25 -6 -3 5 1 10 9
10 9 0 16 -2 16 -4z m235 -36 c-3 -5 -10 -10 -16 -10 -5 0 -9 5 -9 10 0 6 7
10 16 10 8 0 12 -4 9 -10z m-225 -90 c0 -10 7 -23 16 -28 10 -6 14 -14 9 -22
-6 -9 -13 -3 -26 21 -20 38 -24 64 -9 54 6 -3 10 -15 10 -25z m140 -300 c0 -5
-5 -10 -11 -10 -5 0 -7 5 -4 10 3 6 8 10 11 10 2 0 4 -4 4 -10z m-280 -71 c0
-6 -4 -7 -10 -4 -5 3 -10 11 -10 16 0 6 5 7 10 4 6 -3 10 -11 10 -16z m380
-319 c0 -5 -2 -10 -4 -10 -3 0 -8 5 -11 10 -3 6 -1 10 4 10 6 0 11 -4 11 -10z
m-180 -9 c0 -6 -4 -13 -10 -16 -5 -3 -10 1 -10 9 0 9 5 16 10 16 6 0 10 -4 10
-9z m-20 -106 c0 -8 -4 -15 -10 -15 -5 0 -10 4 -10 9 0 5 -10 12 -22 14 -17 3
-14 5 10 6 22 1 32 -3 32 -14z m-240 -191 c0 -8 -4 -14 -10 -14 -5 0 -10 9
-10 21 0 11 5 17 10 14 6 -3 10 -13 10 -21z m-13 -56 c-3 -8 -6 -5 -6 6 -1 11
2 17 5 13 3 -3 4 -12 1 -19z m453 -288 c0 -5 -4 -10 -10 -10 -5 0 -10 5 -10
10 0 6 5 10 10 10 6 0 10 -4 10 -10z m-560 -126 c0 -8 -4 -14 -10 -14 -5 0
-10 9 -10 21 0 11 5 17 10 14 6 -3 10 -13 10 -21z m370 -30 c0 -9 -5 -14 -12
-12 -18 6 -21 28 -4 28 9 0 16 -7 16 -16z"/>
<path d="M3373 4234 c11 -11 86 -14 92 -4 4 6 -14 10 -46 10 -29 0 -49 -3 -46
-6z"/>
<path d="M3500 4229 c0 -5 5 -9 10 -9 6 0 10 -6 10 -14 0 -21 -77 -30 -105
-12 -21 14 -24 13 -40 -4 -10 -11 -18 -37 -19 -57 -1 -31 -5 -39 -22 -41 -12
-2 -27 -15 -33 -29 -9 -20 -17 -24 -38 -20 -27 5 -73 -10 -73 -24 0 -4 -10 -9
-22 -11 -13 -2 -24 -12 -28 -26 -6 -27 -22 -31 -30 -8 -4 13 -8 14 -30 1 -14
-8 -39 -22 -56 -30 -16 -9 -34 -27 -40 -38 -6 -15 -19 -22 -37 -23 -35 -1 -43
-10 -27 -29 17 -21 -3 -45 -32 -37 -18 4 -20 2 -14 -13 9 -24 -10 -35 -47 -28
-23 5 -29 3 -25 -8 3 -10 17 -13 42 -11 32 3 37 1 34 -15 -2 -10 -12 -18 -22
-18 -11 0 -21 -6 -24 -13 -2 -7 6 -12 23 -12 17 0 25 -4 22 -12 -2 -7 -9 -12
-16 -11 -14 4 -44 -55 -37 -73 3 -7 12 -11 20 -8 16 6 30 -11 21 -26 -5 -8
-11 -8 -19 -1 -15 13 -26 4 -26 -20 0 -9 9 -19 20 -22 11 -3 20 -10 20 -16 0
-6 -9 -11 -20 -11 -23 0 -26 -10 -8 -28 9 -9 9 -15 1 -23 -16 -16 -44 -4 -37
16 4 10 0 15 -10 15 -12 0 -16 -7 -13 -26 4 -29 31 -54 59 -54 10 0 18 -5 18
-11 0 -7 -9 -9 -21 -6 -24 6 -49 -1 -49 -14 0 -5 11 -9 25 -9 18 0 25 -5 25
-20 0 -25 -9 -25 -26 -2 -13 16 -15 15 -33 -7 -10 -14 -16 -31 -13 -39 3 -8
-5 -22 -19 -33 -20 -15 -22 -20 -11 -31 11 -11 15 -10 25 3 9 11 27 16 64 15
47 -1 55 -4 78 -36 31 -42 33 -61 2 -32 -13 12 -30 22 -39 22 -8 0 -29 7 -47
16 -17 9 -39 13 -47 10 -21 -8 -14 -39 13 -50 26 -12 37 -66 21 -102 -9 -19
-9 -30 0 -45 16 -24 15 -29 -3 -29 -8 0 -15 5 -15 10 0 6 -7 10 -15 10 -20 0
-19 -9 3 -33 16 -18 16 -20 -15 -46 -24 -20 -33 -36 -33 -57 l0 -29 25 30 24
30 1 -33 c0 -32 1 -33 31 -27 22 5 29 4 25 -4 -4 -6 -14 -11 -22 -11 -12 0
-13 -8 -8 -35 5 -31 4 -35 -14 -35 -27 0 -35 15 -17 30 20 17 8 33 -20 26 -27
-7 -45 26 -45 84 0 33 3 40 20 40 24 0 26 22 4 40 -25 21 -45 -9 -50 -76 -5
-55 -3 -61 26 -93 34 -39 27 -68 -9 -32 -12 12 -27 21 -35 21 -11 0 -10 -8 5
-40 19 -39 22 -40 54 -34 46 8 44 -2 -2 -21 -34 -15 -40 -15 -65 -1 -33 20
-38 20 -38 1 0 -9 -9 -15 -24 -15 -13 0 -26 -6 -29 -14 -4 -9 -15 -12 -31 -9
-49 10 -122 -60 -86 -82 6 -3 10 -10 10 -16 0 -5 -9 -4 -20 3 -23 14 -29 10
-32 -23 -3 -21 1 -24 25 -21 24 2 27 0 27 -28 0 -34 -7 -38 -26 -13 -20 28
-29 7 -26 -58 1 -35 -2 -59 -8 -59 -5 0 -10 16 -10 35 0 22 -6 38 -15 41 -19
8 -19 28 0 44 8 7 13 16 10 20 -6 9 -44 2 -61 -11 -7 -6 -21 1 -38 17 -30 30
-45 26 -29 -9 6 -12 10 -38 9 -57 -1 -19 5 -43 13 -52 12 -15 12 -18 -2 -24
-23 -8 -32 0 -47 45 -15 46 -50 59 -50 19 0 -47 -12 -68 -36 -68 -21 0 -23 -4
-18 -25 3 -14 4 -32 0 -40 -8 -23 -35 -6 -44 28 -11 42 -32 47 -32 8 0 -29 -2
-31 -40 -31 -22 0 -40 -4 -40 -10 0 -5 -9 -10 -20 -10 -10 0 -30 -5 -44 -11
-19 -9 -29 -9 -40 0 -10 9 -16 9 -21 1 -10 -16 -95 -1 -124 21 -36 28 -63 24
-28 -4 15 -13 27 -26 27 -30 0 -10 -38 -9 -45 2 -3 5 -27 9 -53 8 -46 -2 -65
-11 -132 -64 -32 -26 -70 -30 -70 -8 0 20 -14 19 -31 -1 -12 -15 -15 -14 -29
2 -27 31 -60 46 -90 39 -17 -4 -37 -1 -50 7 -18 11 -22 11 -31 -4 -7 -13 -15
-15 -40 -8 -23 7 -37 5 -54 -6 -12 -8 -29 -13 -36 -12 -8 2 -14 -4 -14 -12 0
-11 11 -15 39 -16 25 0 41 -6 48 -18 9 -15 5 -16 -44 -11 -72 9 -77 11 -72 32
7 31 -9 45 -39 34 -20 -8 -24 -15 -20 -33 l5 -23 -22 25 c-21 23 -23 24 -35 6
-13 -17 -14 -17 -25 4 -9 18 -14 19 -26 9 -11 -9 -18 -9 -22 -2 -10 15 -69 14
-83 -3 -6 -8 -28 -14 -48 -14 -20 0 -41 -4 -47 -9 -16 -16 -64 -1 -64 20 0 15
-8 19 -37 20 -21 1 -58 3 -82 5 -24 2 -50 -1 -57 -7 -8 -6 -21 -9 -29 -5 -9 3
-21 -4 -31 -19 -9 -14 -20 -22 -25 -19 -5 3 -9 1 -9 -5 0 -11 48 -47 53 -40 2
2 8 15 14 29 l12 25 7 -22 c7 -24 28 -31 39 -12 9 14 109 2 154 -18 43 -19
126 -25 190 -13 29 5 60 5 77 0 16 -5 63 -14 104 -21 41 -6 95 -17 120 -24 25
-8 74 -19 110 -25 93 -16 92 -16 125 -29 17 -7 53 -15 81 -18 47 -5 52 -8 63
-39 12 -34 8 -54 -10 -54 -5 0 -9 9 -9 20 0 24 -18 26 -48 5 -15 -11 -32 -14
-58 -9 -29 5 -36 4 -32 -7 3 -8 24 -16 49 -19 56 -6 38 -19 -30 -21 l-53 -2 6
-32 c5 -24 2 -34 -9 -39 -8 -3 -15 -13 -15 -21 0 -10 -5 -13 -12 -9 -6 4 -16
0 -22 -8 -6 -9 -20 -17 -31 -19 -26 -5 -33 -64 -11 -88 15 -16 14 -19 -4 -36
-22 -20 -28 -41 -7 -28 6 4 26 8 42 8 25 0 30 3 27 22 -4 26 1 28 27 11 15 -9
17 -15 8 -29 -13 -22 -2 -38 15 -21 7 7 41 12 80 12 53 0 68 -3 68 -15 0 -12
5 -11 29 3 35 19 31 32 -9 32 -48 0 -42 16 11 34 73 23 126 21 156 -6 14 -13
33 -30 42 -39 25 -22 106 -32 120 -15 17 20 -23 53 -43 37 -16 -14 -56 -6 -56
11 0 6 -10 8 -25 4 -18 -5 -25 -2 -25 9 0 13 11 14 73 9 39 -4 80 -11 89 -15
11 -6 19 -5 24 2 9 15 34 -17 34 -43 0 -10 5 -18 10 -18 6 0 10 13 10 29 0 29
22 61 41 61 5 0 9 -11 9 -25 0 -24 1 -24 35 11 19 19 35 39 35 44 0 6 7 10 15
10 10 0 15 -10 15 -31 0 -20 4 -28 11 -23 7 4 9 23 5 51 -4 33 -2 45 9 49 15
6 20 35 8 47 -3 4 -15 -1 -25 -10 -25 -23 -45 -4 -28 27 8 16 9 25 0 35 -14
17 15 35 59 35 16 0 33 5 36 10 9 15 23 12 42 -10 22 -25 40 -25 48 0 3 11 11
20 16 20 12 0 12 27 -1 32 -6 2 -12 13 -13 25 0 12 -6 21 -12 20 -5 -1 -10 5
-10 13 0 8 6 14 13 12 15 -3 16 35 0 40 -17 6 19 55 45 62 13 3 32 3 44 0 11
-3 24 -1 27 5 12 19 24 12 46 -24 22 -35 40 -46 40 -22 0 7 9 18 20 25 12 7
17 18 13 27 -9 25 33 63 62 57 34 -6 31 4 -5 23 -21 11 -30 23 -30 40 0 27 9
32 27 14 7 -7 19 -9 29 -5 15 6 16 8 0 24 -9 10 -16 24 -16 30 0 10 30 24 46
21 5 -1 20 -1 33 0 22 1 23 4 17 40 -6 42 8 66 19 31 7 -22 20 -26 31 -8 5 8
10 6 14 -8 10 -28 1 -46 -21 -39 -23 8 -26 -17 -4 -35 22 -18 18 -37 -7 -36
-14 1 -24 -6 -26 -17 -3 -14 1 -17 20 -12 16 4 29 1 37 -9 8 -9 20 -16 27 -16
8 0 14 -4 14 -10 0 -5 -11 -10 -23 -10 -15 0 -37 -15 -60 -41 -46 -51 -49 -73
-7 -64 35 8 51 0 43 -20 -3 -9 -18 -15 -39 -15 -36 0 -42 -8 -22 -28 17 -17 3
-26 -21 -13 -24 13 -32 3 -30 -36 3 -49 -20 -113 -40 -113 -20 0 -48 -27 -38
-37 4 -3 9 2 13 11 3 9 10 13 15 10 14 -8 10 -40 -6 -54 -9 -7 -13 -21 -10
-30 9 -27 -4 -48 -26 -43 -15 4 -19 0 -19 -23 0 -43 -10 -51 -67 -62 -48 -8
-53 -7 -78 17 l-26 26 3 -55 c3 -49 1 -55 -16 -55 -11 0 -21 -6 -24 -13 -2 -6
-15 -12 -28 -12 -13 0 -24 -4 -24 -10 0 -5 8 -10 18 -10 13 0 22 -12 30 -39
15 -48 15 -48 -2 -54 -10 -4 -13 3 -12 26 1 27 -2 32 -23 32 -13 0 -27 -7 -31
-15 -31 -63 -34 -72 -23 -88 5 -9 23 -17 39 -17 16 -1 38 -7 49 -14 18 -11 16
-11 -16 -6 -45 7 -93 -24 -71 -46 19 -20 14 -46 -15 -73 -25 -24 -26 -26 -7
-32 10 -4 22 -11 25 -16 3 -5 25 -5 50 1 57 12 202 30 257 30 24 1 70 8 101
16 45 11 103 14 269 10 116 -2 219 -9 229 -14 10 -5 35 -17 56 -26 48 -21 76
-78 52 -105 -8 -9 -15 -22 -15 -29 0 -9 -8 -11 -25 -7 -20 5 -25 3 -25 -13 0
-11 5 -23 11 -26 6 -4 8 -22 4 -46 -6 -32 -4 -39 9 -39 9 0 16 5 16 10 0 6 5
10 10 10 14 0 13 -47 -2 -52 -15 -5 19 -58 38 -58 7 0 18 -9 24 -20 14 -25 27
-25 35 0 16 49 68 6 64 -52 -2 -22 1 -42 6 -46 6 -4 36 -45 67 -93 44 -65 57
-95 60 -129 2 -36 7 -46 23 -49 23 -4 38 -23 26 -31 -5 -3 -4 -36 2 -75 9 -62
8 -70 -8 -80 -10 -5 -31 -21 -47 -34 -17 -14 -36 -21 -48 -18 -25 7 -25 -8 0
-40 11 -14 20 -38 20 -53 0 -15 7 -44 16 -65 11 -28 13 -44 5 -66 -9 -27 -8
-29 14 -29 19 0 26 7 34 36 8 30 6 43 -10 73 l-19 36 28 6 c15 3 40 14 55 23
24 16 27 16 33 3 8 -21 -3 -37 -25 -37 -22 0 -41 -19 -41 -42 0 -24 32 -23 55
2 39 43 65 14 65 -71 l0 -29 330 0 330 0 0 1064 c0 1062 0 1064 -20 1059 -11
-3 -23 -9 -26 -14 -3 -5 -12 -9 -21 -9 -14 0 -14 2 -1 22 9 13 26 25 39 28
l24 6 3 291 c2 284 2 291 -18 296 -22 6 -26 28 -9 60 10 18 8 23 -10 35 -25
17 -28 42 -4 42 14 0 15 2 1 18 -13 14 -13 29 -5 87 8 61 6 80 -13 150 -12 44
-24 107 -27 140 -3 33 -10 64 -17 68 -8 6 -8 10 1 13 13 6 11 27 -9 120 -8 40
-7 88 4 205 9 85 16 197 17 249 1 52 6 133 11 180 6 47 10 95 10 108 l0 23
-335 -1 c-198 -1 -335 -5 -335 -11z m-58 -79 c18 0 32 -26 19 -35 -10 -5 -71
13 -85 26 -5 5 -4 15 4 24 12 14 15 14 30 0 9 -8 24 -15 32 -15z m43 -191 c10
-15 -1 -23 -20 -15 -9 3 -13 10 -10 16 8 13 22 13 30 -1z m-130 -9 c-3 -5 -10
-10 -16 -10 -5 0 -9 5 -9 10 0 6 7 10 16 10 8 0 12 -4 9 -10z m-97 -12 c-6
-18 -28 -21 -28 -4 0 9 7 16 16 16 9 0 14 -5 12 -12z m282 -65 c0 -33 -14 -28
-28 10 -17 46 -15 53 8 32 11 -10 20 -29 20 -42z m-257 -31 c-2 -87 -3 -92
-18 -92 -11 0 -15 13 -15 54 0 30 3 62 6 71 12 29 29 9 27 -33z m-47 23 c4 -8
1 -22 -6 -30 -10 -12 -10 -21 0 -45 9 -22 10 -33 1 -44 -6 -7 -9 -26 -6 -42 3
-16 -3 -59 -13 -96 -11 -37 -17 -79 -15 -92 4 -17 -1 -27 -16 -35 -12 -7 -21
-18 -21 -25 0 -8 -7 -16 -15 -20 -19 -7 -20 -26 -1 -26 7 0 21 -11 30 -25 9
-14 28 -28 41 -31 19 -5 24 -11 20 -25 -7 -20 26 -59 50 -59 22 0 18 28 -4 35
-29 9 -39 85 -12 85 10 0 51 -57 51 -71 0 -6 7 -8 16 -5 8 3 24 1 35 -5 17 -9
21 -7 26 9 3 11 13 22 24 25 27 7 24 30 -3 24 -13 -2 -31 -8 -40 -11 -12 -6
-17 -2 -20 16 -2 15 -11 24 -25 26 -18 3 -23 10 -23 32 0 19 -6 29 -20 33 -11
3 -20 13 -20 22 0 11 5 15 16 11 13 -5 14 4 10 70 -3 41 -8 79 -11 84 -3 5 0
38 7 73 10 55 15 65 33 64 11 0 27 2 35 4 16 4 19 -22 6 -52 -5 -11 -1 -18 12
-21 15 -4 19 -15 20 -57 0 -33 9 -65 21 -87 12 -19 21 -47 21 -61 0 -14 8 -40
19 -57 10 -17 21 -47 25 -67 4 -21 12 -42 19 -48 14 -11 15 -72 2 -103 -3 -9
-15 -18 -26 -21 -26 -7 -24 -28 2 -34 21 -6 21 -7 4 -19 -15 -11 -16 -16 -5
-29 9 -11 16 -13 24 -5 5 5 21 10 36 10 23 1 24 1 7 15 -13 9 -17 20 -12 34 8
26 25 27 25 2 0 -10 3 -32 6 -48 5 -28 4 -30 -25 -30 -38 0 -49 -9 -57 -51 -8
-38 7 -42 26 -7 7 14 19 25 27 25 16 0 16 -5 2 -31 -8 -16 -7 -25 5 -38 9 -10
16 -27 16 -39 0 -11 5 -24 10 -27 17 -11 11 -35 -9 -35 -44 0 -30 -34 14 -35
14 0 21 -8 23 -25 6 -60 22 -98 40 -95 9 2 38 6 63 9 l47 5 26 -50 c26 -50 36
-116 16 -104 -5 3 -10 20 -10 36 0 43 -24 32 -28 -13 -2 -21 6 -56 22 -89 23
-51 24 -52 25 -22 1 17 -4 33 -11 35 -7 3 -9 12 -4 24 7 19 8 19 18 0 6 -10
10 -37 10 -60 0 -23 4 -59 10 -81 21 -85 32 -120 40 -130 4 -5 8 -21 8 -35 0
-15 9 -53 20 -86 11 -32 20 -67 20 -77 0 -10 9 -43 20 -74 11 -32 20 -72 20
-90 0 -46 13 -48 41 -6 30 45 45 51 54 21 4 -13 13 -30 20 -38 16 -18 37 -139
36 -200 -1 -34 -8 -52 -29 -75 -34 -36 -54 -79 -46 -100 4 -10 0 -15 -11 -15
-10 0 -15 7 -13 18 3 20 -18 52 -33 52 -14 0 -10 -168 5 -231 10 -41 11 -79 6
-138 -5 -44 -5 -94 0 -111 7 -24 6 -30 -7 -30 -12 0 -13 -3 -4 -13 8 -10 5
-25 -11 -58 -17 -34 -22 -63 -22 -126 -1 -79 -6 -97 -22 -72 -5 8 -10 6 -16
-5 -7 -13 -5 -23 7 -36 18 -20 16 -57 -3 -52 -14 2 -14 1 -17 -51 -2 -39 -15
-61 -22 -39 -7 20 -25 14 -18 -7 3 -10 -1 -23 -9 -30 -7 -6 -14 -30 -14 -54
-1 -31 -6 -46 -21 -56 -24 -15 -27 -37 -8 -45 8 -3 7 -8 -6 -16 -13 -8 -15
-16 -8 -29 7 -13 6 -24 -5 -39 -17 -25 -11 -44 11 -35 10 3 15 -2 15 -17 0
-11 -4 -18 -10 -15 -9 6 -13 -7 -25 -79 l-6 -39 -18 29 c-10 16 -38 42 -62 59
-66 45 -88 67 -104 103 -8 19 -28 51 -45 72 -38 48 -112 192 -125 245 -6 24
-16 40 -25 40 -10 0 -15 14 -17 50 -2 29 -9 55 -18 61 -21 16 -19 29 6 31 28
2 35 11 21 25 -7 7 -12 23 -12 36 0 30 -20 103 -32 116 -4 6 -8 -1 -8 -15 0
-13 -9 -30 -20 -37 -11 -7 -20 -20 -20 -30 -1 -47 -18 -44 -64 13 -41 51 -62
96 -36 80 18 -11 10 12 -10 30 -33 30 -19 99 31 149 21 21 39 46 39 56 0 10
12 33 27 50 23 28 25 35 14 52 -10 16 -10 23 3 37 8 9 20 50 26 91 10 72 59
208 86 240 10 12 10 26 -2 70 -8 30 -19 89 -24 130 -10 80 -57 244 -85 297 -9
20 -17 60 -18 100 -1 38 -6 74 -11 82 -5 8 -10 68 -11 133 -1 106 0 120 17
129 14 7 16 14 9 28 -6 10 -8 26 -5 37 3 12 -3 24 -17 32 -21 13 -22 13 -16
-17 10 -46 -8 -37 -22 12 -7 23 -18 48 -25 56 -9 12 -8 12 11 3 35 -19 39 5 6
39 -64 67 -67 71 -54 90 14 23 15 79 1 79 -5 0 -10 -7 -10 -15 0 -8 -4 -15
-10 -15 -5 0 -7 6 -4 14 3 8 1 17 -5 21 -14 8 -14 52 -1 60 16 10 12 23 -11
30 -12 4 -18 12 -15 21 3 7 -3 33 -14 56 -10 24 -22 60 -25 81 -4 21 -13 41
-20 43 -14 6 -19 150 -6 158 11 7 28 -8 34 -29 3 -13 5 -10 6 12 1 20 -6 37
-16 45 -14 10 -18 29 -19 81 -1 38 3 67 8 67 6 0 8 11 4 24 -3 12 -2 26 2 30
4 4 7 17 7 29 0 11 5 22 12 24 7 3 9 -3 6 -16 -3 -12 -1 -21 4 -21 19 0 32 24
26 50 -4 24 -1 28 25 33 16 3 38 4 49 1 13 -4 22 0 26 10 8 20 26 21 33 1z
m84 -11 c0 -8 -4 -12 -10 -9 -5 3 -10 13 -10 21 0 8 5 12 10 9 6 -3 10 -13 10
-21z m598 -107 c2 -15 8 -27 13 -27 5 0 14 -10 19 -22 5 -13 20 -35 32 -50 16
-21 22 -43 24 -95 2 -38 12 -97 23 -133 11 -36 21 -78 21 -94 0 -34 20 -96 31
-96 4 0 7 -13 7 -29 -1 -19 -6 -28 -17 -27 -12 1 -17 -11 -19 -52 -2 -42 -9
-59 -27 -75 -13 -12 -27 -34 -31 -49 -5 -25 -4 -27 22 -25 27 2 27 2 25 -59
-1 -36 2 -65 8 -69 6 -3 11 -24 11 -46 0 -73 -24 -38 -44 65 l-19 98 -31 -64
c-28 -57 -31 -60 -34 -35 -2 16 -12 37 -23 48 -10 10 -19 24 -19 29 0 18 19
11 31 -12 11 -20 12 -20 21 -4 6 10 8 30 5 44 -6 33 8 72 27 72 17 0 56 46 56
67 0 11 -7 13 -29 8 -21 -4 -30 -2 -34 9 -8 21 2 46 19 46 17 0 12 92 -5 98
-17 6 -51 77 -51 106 0 13 -6 26 -14 29 -8 3 -16 30 -20 69 -3 34 -10 92 -16
128 -6 45 -5 77 2 103 10 32 9 40 -3 48 -12 8 -12 10 1 19 22 14 35 7 38 -23z
m-107 0 c-13 -13 -26 -3 -16 12 3 6 11 8 17 5 6 -4 6 -10 -1 -17z m-931 -277
c0 -5 -4 -10 -10 -10 -5 0 -10 5 -10 10 0 6 5 10 10 10 6 0 10 -4 10 -10z
m370 -50 c0 -5 -4 -10 -10 -10 -5 0 -10 5 -10 10 0 6 5 10 10 10 6 0 10 -4 10
-10z m-405 -295 c0 -10 -6 -20 -12 -22 -8 -3 -13 5 -13 22 0 17 5 25 13 23 6
-3 12 -13 12 -23z m44 -28 c-13 -30 -29 -36 -29 -12 0 23 23 56 33 46 4 -4 3
-20 -4 -34z m51 -11 c0 -14 -29 -31 -38 -22 -2 3 -2 12 1 21 8 19 37 20 37 1z
m-90 -40 c0 -8 -7 -19 -15 -26 -13 -10 -15 -9 -15 12 0 14 3 28 6 31 9 9 24
-2 24 -17z m1060 -49 c-1 -21 -1 -21 -15 -3 -8 10 -12 23 -9 28 9 14 24 -2 24
-25z m-1022 -6 c3 -8 -1 -12 -9 -9 -7 2 -15 10 -17 17 -3 8 1 12 9 9 7 -2 15
-10 17 -17z m-47 -26 c-1 -15 -24 -12 -29 3 -3 9 2 13 12 10 10 -1 17 -7 17
-13z m55 -63 c-4 -3 -11 -1 -17 5 -7 7 -6 19 3 39 l13 29 3 -34 c2 -18 1 -36
-2 -39z m-86 8 c0 -5 -5 -10 -11 -10 -5 0 -7 5 -4 10 3 6 8 10 11 10 2 0 4 -4
4 -10z m1275 -39 c3 -5 1 -12 -5 -16 -5 -3 -10 1 -10 9 0 18 6 21 15 7z
m-1210 -61 c3 -5 -3 -10 -14 -10 -12 0 -21 5 -21 10 0 6 6 10 14 10 8 0 18 -4
21 -10z m-39 -72 c-1 -13 -8 -33 -15 -46 -6 -12 -9 -27 -6 -32 7 -12 -12 -23
-26 -15 -7 5 -5 15 5 31 9 13 16 34 16 47 0 13 3 27 7 30 13 14 22 7 19 -15z
m1270 -15 c-10 -10 -19 5 -10 18 6 11 8 11 12 0 2 -7 1 -15 -2 -18z m-43 2 c7
-16 -8 -29 -23 -20 -15 9 -12 35 4 35 8 0 16 -7 19 -15z m157 -11 c0 -8 -5
-12 -10 -9 -6 4 -8 11 -5 16 9 14 15 11 15 -7z m-1467 -41 c-4 -10 -14 -23
-22 -29 -13 -10 -13 -15 -2 -27 9 -12 10 -21 1 -36 -15 -29 -24 -26 -35 11
-10 31 -12 32 -56 30 -32 -2 -49 1 -58 12 -18 21 6 30 57 22 76 -13 87 -12 97
12 11 26 27 30 18 5z m1247 -19 c0 -14 -4 -23 -10 -19 -5 3 -10 15 -10 26 0
10 5 19 10 19 6 0 10 -12 10 -26z m68 4 c7 -7 12 -19 12 -27 0 -11 -4 -10 -20
4 -21 19 -26 35 -12 35 4 0 13 -5 20 -12z m-1548 -23 c0 -8 -9 -19 -20 -25
-17 -9 -20 -8 -20 14 0 23 17 38 33 29 4 -2 7 -11 7 -18z m117 -51 c20 -12 21
-17 11 -39 -8 -18 -17 -24 -29 -20 -22 7 -33 -10 -21 -31 6 -11 11 -13 16 -5
13 21 26 11 26 -19 l0 -31 -24 18 c-13 10 -32 30 -41 46 -15 26 -15 27 2 27
24 0 43 19 36 36 -8 22 -50 17 -56 -7 -3 -12 -10 -18 -16 -14 -7 4 -6 16 5 36
13 26 19 30 42 24 15 -3 37 -13 49 -21z m1500 -10 c5 -14 -35 -26 -43 -13 -8
14 6 30 24 27 8 -2 17 -8 19 -14z m-57 -29 c0 -8 -4 -15 -10 -15 -5 0 -10 7
-10 15 0 8 5 15 10 15 6 0 10 -7 10 -15z m90 -25 c-9 -6 -19 -5 -25 1 -6 6 -5
13 5 19 9 6 19 5 25 -1 6 -6 5 -13 -5 -19z m-58 -25 c8 -19 8 -31 -1 -51 -8
-19 -9 -30 0 -40 6 -7 8 -17 5 -22 -3 -5 4 -18 16 -28 l21 -19 -7 37 c-4 21
-2 39 4 43 6 4 5 16 -4 34 -10 18 -11 32 -5 42 20 31 35 -17 37 -118 1 -92 0
-97 -15 -75 -14 21 -17 21 -28 5 -19 -25 -8 -41 36 -53 52 -14 50 -30 -5 -30
-50 0 -58 8 -75 70 -14 53 -14 43 -11 148 3 84 12 101 32 57z m-1797 -25 c3
-5 -3 -10 -14 -10 -12 0 -21 5 -21 10 0 6 6 10 14 10 8 0 18 -4 21 -10z m195
0 c0 -5 -4 -10 -10 -10 -5 0 -10 5 -10 10 0 6 5 10 10 10 6 0 10 -4 10 -10z
m-55 -45 c0 -10 -6 -20 -12 -22 -8 -3 -13 5 -13 22 0 17 5 25 13 23 6 -3 12
-13 12 -23z m-115 -21 c0 -11 -5 -14 -16 -10 -9 3 -18 6 -20 6 -3 0 -2 5 1 10
10 16 35 12 35 -6z m185 -9 c0 -5 -10 -11 -22 -13 -16 -2 -23 2 -23 13 0 11 7
15 23 13 12 -2 22 -7 22 -13z m1695 -115 c0 -5 -4 -10 -10 -10 -5 0 -10 5 -10
10 0 6 5 10 10 10 6 0 10 -4 10 -10z m-2955 -80 c3 -5 2 -10 -4 -10 -5 0 -13
5 -16 10 -3 6 -2 10 4 10 5 0 13 -4 16 -10z m1375 -21 c0 -11 -4 -17 -10 -14
-5 3 -10 13 -10 21 0 8 5 14 10 14 6 0 10 -9 10 -21z m1555 11 c-11 -5 -29 -9
-40 -9 -17 -1 -17 1 -5 9 8 5 26 9 40 9 23 0 23 -1 5 -9z m-2661 -193 c8 -12
7 -21 -6 -33 -20 -20 -38 -11 -38 20 0 39 23 46 44 13z m111 13 c12 -20 -5
-28 -35 -17 -17 6 -30 15 -30 19 0 12 58 10 65 -2z m515 -55 c0 -8 -4 -15 -10
-15 -5 0 -10 7 -10 15 0 8 5 15 10 15 6 0 10 -7 10 -15z m-522 -12 c-2 -9 -14
-20 -28 -23 -14 -3 -26 -14 -28 -24 -3 -15 -1 -16 17 -5 17 11 23 10 39 -4 10
-9 24 -17 30 -17 7 0 12 -8 12 -17 1 -17 1 -17 11 0 5 9 14 17 19 17 13 0 13
-30 0 -50 -7 -12 -13 -10 -34 13 -18 19 -35 27 -59 27 -25 0 -37 6 -45 23 -21
41 -19 62 5 62 11 0 25 3 29 8 14 14 35 7 32 -10z m-198 -33 c0 -5 -6 -10 -14
-10 -8 0 -18 5 -21 10 -3 6 3 10 14 10 12 0 21 -4 21 -10z m90 -25 c18 -22 8
-27 -28 -14 -30 10 -40 27 -26 42 8 8 36 -7 54 -28z m244 6 c3 -5 0 -14 -8
-20 -10 -9 -15 -8 -19 3 -9 22 15 37 27 17z m-359 -38 c-10 -41 -21 -51 -65
-55 -32 -3 -41 0 -46 15 -9 27 9 41 33 26 28 -17 56 -5 48 21 -5 16 -2 20 15
20 19 0 21 -4 15 -27z m63 -31 c-2 -8 -8 -17 -14 -19 -13 -4 -27 24 -19 37 9
14 36 -1 33 -18z m473 -115 c-8 -8 -18 -4 -36 13 -25 23 -25 51 0 30 17 -14
34 -5 37 18 0 9 3 2 5 -17 3 -18 0 -38 -6 -44z m-131 7 c0 -8 -5 -12 -10 -9
-6 4 -8 11 -5 16 9 14 15 11 15 -7z m2275 -131 c-4 -62 -4 -61 -15 -43 -15 24
-12 90 4 90 10 0 13 -13 11 -47z m-1745 -33 c0 -5 -9 -10 -20 -10 -11 0 -20 5
-20 10 0 6 9 10 20 10 11 0 20 -4 20 -10z m-90 -107 c0 -13 -3 -13 -15 -3 -8
7 -12 16 -9 21 8 13 24 1 24 -18z m980 -511 c0 -14 -11 -21 -26 -15 -21 8 -17
23 6 23 11 0 20 -4 20 -8z m228 -674 c3 -25 -20 -44 -39 -32 -22 13 1 69 26
61 5 -2 11 -15 13 -29z m352 22 c0 -5 -5 -10 -11 -10 -5 0 -7 5 -4 10 3 6 8
10 11 10 2 0 4 -4 4 -10z m-402 -83 c2 -11 -3 -17 -16 -17 -20 0 -36 23 -24
34 11 12 37 1 40 -17z"/>
<path d="M3124 3809 c-3 -6 -2 -15 4 -21 13 -13 32 -2 32 18 0 16 -26 19 -36
3z"/>
<path d="M3080 3460 c0 -5 5 -10 11 -10 5 0 7 5 4 10 -3 6 -8 10 -11 10 -2 0
-4 -4 -4 -10z"/>
<path d="M3460 3316 c0 -10 9 -16 21 -16 24 0 21 23 -4 28 -10 2 -17 -3 -17
-12z"/>
<path d="M3121 3304 c0 -11 3 -14 6 -6 3 7 2 16 -1 19 -3 4 -6 -2 -5 -13z"/>
<path d="M3180 3300 c0 -12 28 -21 35 -11 2 5 -4 11 -15 14 -11 3 -20 2 -20
-3z"/>
<path d="M3421 3278 c-6 -16 -4 -28 7 -40 18 -22 31 -22 56 -3 19 14 19 15 -8
40 -33 31 -44 31 -55 3z"/>
<path d="M3230 3236 c0 -9 7 -16 16 -16 9 0 14 5 12 12 -6 18 -28 21 -28 4z"/>
<path d="M3554 2847 c3 -10 6 -27 6 -38 0 -10 5 -19 10 -19 15 0 12 34 -6 56
-14 17 -15 17 -10 1z"/>
<path d="M3960 1865 c0 -8 5 -15 10 -15 6 0 10 7 10 15 0 8 -4 15 -10 15 -5 0
-10 -7 -10 -15z"/>
<path d="M1660 4100 c0 -5 5 -10 10 -10 6 0 10 5 10 10 0 6 -4 10 -10 10 -5 0
-10 -4 -10 -10z"/>
<path d="M2267 4060 c-9 -34 -9 -50 2 -50 13 0 18 22 11 50 l-6 25 -7 -25z"/>
<path d="M2355 4030 c-3 -5 1 -10 9 -10 9 0 16 5 16 10 0 6 -4 10 -9 10 -6 0
-13 -4 -16 -10z"/>
<path d="M2280 3890 c0 -18 4 -29 10 -25 6 3 10 15 10 25 0 10 -4 22 -10 25
-6 4 -10 -7 -10 -25z"/>
<path d="M2360 3913 c0 -4 5 -15 10 -23 8 -13 10 -13 10 2 0 9 -4 20 -10 23
-5 3 -10 3 -10 -2z"/>
<path d="M2182 3709 c2 -6 8 -10 13 -10 5 0 11 4 13 10 2 6 -4 11 -13 11 -9 0
-15 -5 -13 -11z"/>
<path d="M2755 3695 c21 -17 45 -17 48 0 1 6 -14 11 -33 13 -33 2 -34 2 -15
-13z"/>
<path d="M1700 3671 c0 -12 5 -21 10 -21 6 0 10 6 10 14 0 8 -4 18 -10 21 -5
3 -10 -3 -10 -14z"/>
<path d="M2722 3639 c2 -7 10 -15 17 -17 8 -3 12 1 9 9 -2 7 -10 15 -17 17 -8
3 -12 -1 -9 -9z"/>
<path d="M1717 3623 c-4 -3 -7 -18 -7 -32 1 -25 1 -25 15 -7 23 30 15 63 -8
39z"/>
<path d="M2780 3595 c0 -8 5 -15 10 -15 6 0 10 7 10 15 0 8 -4 15 -10 15 -5 0
-10 -7 -10 -15z"/>
<path d="M2780 3525 c0 -8 5 -15 10 -15 6 0 10 7 10 15 0 8 -4 15 -10 15 -5 0
-10 -7 -10 -15z"/>
<path d="M2677 3454 c-8 -8 1 -24 14 -24 5 0 9 7 9 15 0 15 -12 20 -23 9z"/>
<path d="M2720 3390 c0 -5 7 -10 15 -10 8 0 15 5 15 10 0 6 -7 10 -15 10 -8 0
-15 -4 -15 -10z"/>
<path d="M2708 3335 c-19 -26 -23 -45 -9 -45 12 0 27 20 35 48 9 29 -4 28 -26
-3z"/>
<path d="M2663 3188 c2 -7 10 -13 17 -13 7 0 15 6 18 13 2 7 -5 12 -18 12 -13
0 -20 -5 -17 -12z"/>
<path d="M2680 3140 c0 -5 5 -10 10 -10 6 0 10 5 10 10 0 6 -4 10 -10 10 -5 0
-10 -4 -10 -10z"/>
<path d="M2760 3096 c0 -9 5 -16 10 -16 6 0 10 4 10 9 0 6 -4 13 -10 16 -5 3
-10 -1 -10 -9z"/>
<path d="M2720 3046 c0 -9 5 -16 10 -16 6 0 10 4 10 9 0 6 -4 13 -10 16 -5 3
-10 -1 -10 -9z"/>
<path d="M2627 3020 c-9 -24 -3 -63 11 -68 13 -4 14 19 2 58 -5 18 -9 21 -13
10z"/>
<path d="M896 3005 c-10 -27 -7 -45 8 -45 8 0 21 -8 28 -19 10 -14 23 -18 52
-16 37 3 38 3 32 -26 -8 -41 7 -36 27 9 22 49 21 55 -3 47 -17 -5 -20 -2 -20
20 0 20 -4 26 -14 22 -14 -6 -48 2 -87 18 -10 4 -19 0 -23 -10z"/>
<path d="M2340 2950 c0 -5 5 -10 10 -10 6 0 10 5 10 10 0 6 -4 10 -10 10 -5 0
-10 -4 -10 -10z"/>
<path d="M1101 2922 c-13 -24 7 -73 29 -70 8 1 21 -1 28 -5 15 -10 27 16 17
41 -6 16 -7 16 -21 -2 -11 -15 -17 -17 -26 -8 -8 8 -8 15 1 25 9 11 8 17 -3
26 -12 10 -17 8 -25 -7z"/>
<path d="M2580 2896 c0 -8 5 -18 10 -21 6 -3 10 3 10 14 0 12 -4 21 -10 21 -5
0 -10 -6 -10 -14z"/>
<path d="M970 2882 c0 -12 19 -26 26 -19 2 2 -2 10 -11 17 -9 8 -15 8 -15 2z"/>
<path d="M1200 2861 c0 -6 5 -13 10 -16 6 -3 10 1 10 9 0 9 -4 16 -10 16 -5 0
-10 -4 -10 -9z"/>
<path d="M2337 2854 c-8 -8 1 -24 14 -24 5 0 9 7 9 15 0 15 -12 20 -23 9z"/>
<path d="M1035 2830 c3 -5 10 -10 16 -10 5 0 9 5 9 10 0 6 -7 10 -16 10 -8 0
-12 -4 -9 -10z"/>
<path d="M2531 2816 c-9 -11 -8 -15 5 -20 23 -9 24 -8 24 14 0 23 -13 26 -29
6z"/>
<path d="M2275 2810 c-3 -5 1 -10 9 -10 9 0 16 5 16 10 0 6 -4 10 -9 10 -6 0
-13 -4 -16 -10z"/>
<path d="M2455 2810 c-4 -6 5 -10 20 -10 15 0 24 4 20 10 -3 6 -12 10 -20 10
-8 0 -17 -4 -20 -10z"/>
<path d="M2436 2771 c-4 -7 -5 -15 -2 -18 9 -9 19 4 14 18 -4 11 -6 11 -12 0z"/>
<path d="M2270 2744 c0 -17 22 -14 28 4 2 7 -3 12 -12 12 -9 0 -16 -7 -16 -16z"/>
<path d="M2357 2754 c-8 -8 1 -24 14 -24 5 0 9 7 9 15 0 15 -12 20 -23 9z"/>
<path d="M2507 2724 c-14 -14 -7 -25 13 -22 12 2 21 8 21 13 0 12 -24 18 -34
9z"/>
<path d="M2320 2704 c0 -8 5 -12 10 -9 6 3 10 10 10 16 0 5 -4 9 -10 9 -5 0
-10 -7 -10 -16z"/>
<path d="M2403 2705 c-3 -9 -3 -18 0 -21 9 -9 27 6 27 22 0 19 -19 18 -27 -1z"/>
<path d="M2380 2650 c0 -5 -5 -10 -11 -10 -6 0 -22 -9 -36 -20 -19 -15 -21
-20 -9 -20 9 0 16 5 16 10 0 6 6 10 13 10 8 0 22 9 32 20 10 11 13 20 7 20 -7
0 -12 -4 -12 -10z"/>
<path d="M2260 2575 c0 -9 5 -15 11 -13 6 2 11 8 11 13 0 5 -5 11 -11 13 -6 2
-11 -4 -11 -13z"/>
<path d="M2367 2583 c-4 -3 -7 -11 -7 -17 0 -6 5 -5 12 2 6 6 9 14 7 17 -3 3
-9 2 -12 -2z"/>
<path d="M2302 2548 c7 -19 38 -22 38 -4 0 10 -9 16 -21 16 -12 0 -19 -5 -17
-12z"/>
<path d="M2000 2426 c0 -9 5 -16 10 -16 6 0 10 4 10 9 0 6 -4 13 -10 16 -5 3
-10 -1 -10 -9z"/>
<path d="M2046 2433 c-9 -9 -7 -33 3 -33 12 0 22 28 12 34 -5 3 -11 3 -15 -1z"/>
<path d="M2096 2425 c-12 -9 -16 -20 -11 -32 6 -16 8 -16 16 5 4 12 16 22 24
22 9 0 13 5 10 10 -8 13 -16 12 -39 -5z"/>
<path d="M1905 2410 c-3 -5 1 -10 9 -10 9 0 16 5 16 10 0 6 -4 10 -9 10 -6 0
-13 -4 -16 -10z"/>
<path d="M1845 2360 c-3 -5 1 -10 9 -10 9 0 16 5 16 10 0 6 -4 10 -9 10 -6 0
-13 -4 -16 -10z"/>
<path d="M2544 2317 c-11 -12 -12 -17 -4 -11 8 6 22 13 30 16 9 3 10 7 3 11
-6 4 -19 -3 -29 -16z"/>
<path d="M2535 2240 c-3 -5 1 -10 10 -10 9 0 13 5 10 10 -3 6 -8 10 -10 10 -2
0 -7 -4 -10 -10z"/>
<path d="M1120 1910 c0 -5 5 -10 10 -10 6 0 10 5 10 10 0 6 -4 10 -10 10 -5 0
-10 -4 -10 -10z"/>
<path d="M1180 1898 c1 -24 47 -84 57 -74 3 3 1 18 -6 32 -8 19 -9 30 -1 38
17 17 11 26 -20 26 -25 0 -30 -4 -30 -22z"/>
<path d="M2240 1905 c0 -8 5 -15 10 -15 6 0 10 7 10 15 0 8 -4 15 -10 15 -5 0
-10 -7 -10 -15z"/>
<path d="M2053 1883 c-16 -6 -17 -33 -3 -33 11 0 26 28 19 34 -2 2 -10 1 -16
-1z"/>
<path d="M1100 1870 c0 -5 5 -10 10 -10 6 0 10 5 10 10 0 6 -4 10 -10 10 -5 0
-10 -4 -10 -10z"/>
<path d="M2100 1871 c0 -6 5 -13 10 -16 6 -3 10 1 10 9 0 9 -4 16 -10 16 -5 0
-10 -4 -10 -9z"/>
<path d="M2160 1830 c0 -5 5 -10 11 -10 5 0 7 5 4 10 -3 6 -8 10 -11 10 -2 0
-4 -4 -4 -10z"/>
<path d="M2280 1825 c0 -8 5 -15 10 -15 6 0 10 7 10 15 0 8 -4 15 -10 15 -5 0
-10 -7 -10 -15z"/>
<path d="M1157 1824 c-8 -8 3 -34 14 -34 11 0 12 27 0 34 -4 3 -11 3 -14 0z"/>
<path d="M2100 1816 c0 -9 5 -16 10 -16 6 0 10 4 10 9 0 6 -4 13 -10 16 -5 3
-10 -1 -10 -9z"/>
<path d="M2200 1811 c0 -5 5 -13 10 -16 6 -3 10 -2 10 4 0 5 -4 13 -10 16 -5
3 -10 2 -10 -4z"/>
<path d="M1120 1766 c0 -8 5 -18 10 -21 6 -3 10 3 10 14 0 12 -4 21 -10 21 -5
0 -10 -6 -10 -14z"/>
<path d="M2080 1754 c0 -8 5 -12 10 -9 6 3 10 10 10 16 0 5 -4 9 -10 9 -5 0
-10 -7 -10 -16z"/>
<path d="M2141 1746 c-8 -10 -9 -16 -1 -21 13 -8 30 3 30 21 0 18 -14 18 -29
0z"/>
<path d="M2206 1738 c-3 -13 -1 -27 4 -32 7 -7 10 1 10 22 0 37 -5 41 -14 10z"/>
<path d="M2340 1734 c0 -31 23 -28 28 4 2 15 -2 22 -12 22 -11 0 -16 -9 -16
-26z"/>
<path d="M1074 1737 c-3 -8 0 -25 5 -40 9 -22 7 -28 -9 -37 -12 -7 -21 -7 -25
0 -11 18 -26 10 -23 -12 3 -22 31 -33 58 -21 8 3 17 7 20 8 59 16 64 35 20 83
-33 36 -38 38 -46 19z"/>
<path d="M1045 1710 c-3 -5 -1 -10 4 -10 6 0 11 5 11 10 0 6 -2 10 -4 10 -3 0
-8 -4 -11 -10z"/>
<path d="M1550 1641 c0 -12 6 -21 16 -21 9 0 14 7 12 17 -5 25 -28 28 -28 4z"/>
<path d="M2067 1622 c-10 -10 -17 -23 -17 -28 0 -5 5 -1 11 9 5 9 19 17 29 17
11 0 20 5 20 10 0 16 -26 11 -43 -8z"/>
<path d="M1610 1618 c0 -10 4 -18 9 -18 5 0 18 -3 28 -6 15 -5 15 -3 -2 7 -11
7 -23 17 -27 23 -5 7 -8 4 -8 -6z"/>
<path d="M2030 1560 c-14 -26 -3 -45 16 -29 16 13 19 49 4 49 -5 0 -14 -9 -20
-20z"/>
<path d="M2095 1570 c4 -6 11 -8 16 -5 14 9 11 15 -7 15 -8 0 -12 -5 -9 -10z"/>
<path d="M2056 1325 c4 -8 10 -15 15 -15 5 0 9 7 9 15 0 8 -7 15 -15 15 -9 0
-12 -6 -9 -15z"/>
<path d="M170 1242 c0 -5 7 -13 16 -16 10 -4 14 -1 12 6 -5 15 -28 23 -28 10z"/>
<path d="M2035 1219 c-4 -6 -5 -13 -2 -16 7 -7 27 6 27 18 0 12 -17 12 -25 -2z"/>
<path d="M220 1214 c0 -3 9 -18 21 -33 18 -24 19 -31 8 -49 -11 -18 -9 -26 24
-65 20 -25 37 -52 37 -60 0 -8 7 -20 16 -28 21 -17 57 -95 51 -111 -2 -7 0
-22 6 -32 7 -15 5 -22 -7 -32 -20 -14 -13 -59 12 -70 10 -4 74 -9 144 -10 111
-2 133 -5 164 -23 20 -12 46 -20 58 -18 19 3 19 4 -6 15 -14 6 -30 17 -35 25
-4 7 -16 17 -27 20 -14 6 -16 10 -7 21 8 10 3 21 -24 49 -19 20 -35 40 -35 44
0 19 -155 180 -188 195 -20 9 -37 24 -37 32 0 25 -120 131 -149 132 -14 1 -26
0 -26 -2z m110 -124 c0 -5 -4 -10 -9 -10 -6 0 -13 5 -16 10 -3 6 1 10 9 10 9
0 16 -4 16 -10z"/>
<path d="M1342 1114 c-14 -25 -120 -30 -137 -7 -11 15 -13 15 -23 -3 -8 -15
-22 -20 -63 -22 -89 -4 -83 -22 7 -22 44 0 85 -5 90 -10 7 -7 26 -5 58 4 26 8
54 12 62 9 18 -7 46 22 42 44 -4 23 -25 27 -36 7z"/>
<path d="M1410 1110 c0 -5 7 -10 15 -10 8 0 15 5 15 10 0 6 -7 10 -15 10 -8 0
-15 -4 -15 -10z"/>
<path d="M960 1073 c-14 -3 -29 -9 -34 -14 -6 -5 -24 -9 -40 -9 -41 0 -65 -15
-41 -24 10 -3 24 -1 31 5 7 6 18 8 23 5 5 -4 12 -2 15 3 3 5 25 12 48 15 51 8
88 26 48 24 -14 0 -36 -3 -50 -5z"/>
<path d="M780 770 c0 -5 4 -10 9 -10 5 0 11 -9 14 -21 3 -12 10 -18 15 -15 5
3 15 -1 22 -9 11 -13 10 -18 -6 -29 -15 -12 -16 -16 -5 -30 7 -9 20 -16 27
-16 8 0 14 -5 14 -11 0 -5 -8 -9 -17 -8 -32 3 -53 -1 -53 -9 0 -5 15 -23 33
-42 17 -18 27 -31 21 -27 -18 10 -32 -14 -36 -58 -2 -25 -8 -40 -16 -40 -18 0
-41 -43 -42 -76 0 -22 -12 -34 -65 -68 -51 -32 -67 -38 -71 -26 -8 20 4 35 21
28 9 -3 15 1 15 10 0 21 -51 9 -57 -14 -6 -23 -19 -25 -27 -4 -5 13 -8 13 -25
-4 -10 -10 -21 -27 -23 -38 -5 -28 -33 -22 -33 7 0 24 -11 40 -28 40 -4 0 -5
-11 -1 -25 5 -22 3 -25 -20 -25 -14 0 -26 4 -26 8 0 5 -6 16 -13 26 -13 18
-15 18 -50 1 -20 -9 -40 -14 -46 -11 -5 4 -15 -3 -21 -14 -6 -11 -19 -20 -29
-20 -10 0 -26 -11 -35 -25 -21 -32 -76 -30 -91 3 -13 30 -21 27 -29 -9 -5 -26
-10 -30 -27 -26 -12 3 -35 3 -50 0 l-29 -5 0 -89 0 -89 770 0 c424 0 770 3
770 8 0 4 -7 16 -15 26 -17 22 -12 34 21 46 19 8 24 17 24 44 0 18 7 39 15 46
8 7 15 18 15 24 0 19 74 86 94 86 10 0 29 9 43 20 14 11 32 20 39 20 23 0 138
42 155 56 8 8 22 14 31 14 8 0 30 7 48 16 18 9 67 21 109 26 42 6 89 17 104
25 33 17 148 43 193 43 16 0 39 -7 50 -15 10 -8 27 -15 36 -15 9 0 40 -14 69
-30 39 -24 54 -28 65 -19 7 6 18 8 24 4 16 -10 12 26 -6 46 -8 9 -16 28 -18
42 -1 14 -8 33 -15 41 -10 12 -9 21 4 46 9 18 14 34 12 37 -11 10 -121 -22
-138 -41 -21 -22 -39 -15 -20 8 11 13 8 14 -23 9 -29 -4 -37 -2 -43 13 -10 29
-24 34 -49 17 -13 -8 -29 -11 -36 -7 -17 11 -91 11 -99 1 -3 -5 -12 -10 -20
-11 -8 -2 -25 -8 -39 -13 -14 -6 -44 -11 -68 -11 -24 -1 -50 -6 -58 -13 -11
-9 -21 -9 -44 1 -18 7 -44 10 -67 5 -65 -12 -157 -11 -179 3 -18 10 -23 10
-34 -3 -10 -12 -37 -15 -126 -15 -69 0 -114 4 -114 10 0 8 37 15 63 11 4 0 7
3 7 8 0 5 -13 11 -29 14 -24 5 -28 10 -24 27 3 11 0 20 -6 20 -6 0 -11 -6 -11
-14 0 -21 -21 -31 -30 -15 -7 10 -13 7 -29 -12 l-21 -24 -23 28 c-27 33 -62
38 -52 7 8 -25 -5 -25 -62 -4 -39 15 -43 15 -59 -1 -11 -11 -24 -14 -38 -9
-12 4 -39 7 -61 8 -22 1 -46 5 -53 9 -8 5 -19 3 -29 -4 -13 -11 -17 -10 -28 4
-7 10 -26 17 -44 17 -17 0 -31 5 -31 11 0 6 -7 8 -16 5 -11 -4 -20 5 -32 34
-13 29 -21 38 -34 34 -11 -3 -22 3 -30 15 -14 22 -28 28 -28 11z m-380 -536
c0 -17 -22 -14 -28 4 -2 7 3 12 12 12 9 0 16 -7 16 -16z m-107 -29 c-7 -21
-13 -19 -13 6 0 11 4 18 10 14 5 -3 7 -12 3 -20z m47 -6 c0 -5 -4 -9 -10 -9
-5 0 -10 7 -10 16 0 8 5 12 10 9 6 -3 10 -10 10 -16z m180 -69 c0 -5 -2 -10
-4 -10 -3 0 -8 5 -11 10 -3 6 -1 10 4 10 6 0 11 -4 11 -10z"/>
<path d="M2430 680 c0 -5 4 -10 9 -10 6 0 13 5 16 10 3 6 -1 10 -9 10 -9 0
-16 -4 -16 -10z"/>
<path d="M2650 382 c0 -21 30 -52 49 -52 20 0 75 -50 81 -73 3 -12 30 -33 62
-51 52 -28 95 -71 170 -167 21 -27 29 -31 39 -22 10 10 9 16 -4 31 -25 27 -21
32 24 32 52 0 42 16 -19 32 -37 9 -63 27 -127 88 -77 74 -177 150 -243 184
-30 16 -32 16 -32 -2z m370 -303 c0 -6 -4 -7 -10 -4 -5 3 -10 11 -10 16 0 6 5
7 10 4 6 -3 10 -11 10 -16z"/>
<path d="M3196 341 c-16 -18 -15 -19 14 -24 16 -4 30 -11 30 -17 0 -10 36 -50
45 -50 3 0 5 9 5 19 0 11 5 23 10 26 14 9 -7 35 -27 35 -7 0 -24 7 -37 15 -21
14 -24 13 -40 -4z"/>
<path d="M160 251 c0 -6 5 -13 10 -16 6 -3 10 1 10 9 0 9 -4 16 -10 16 -5 0
-10 -4 -10 -9z"/>
<path d="M3210 242 c-24 -8 -30 -25 -15 -48 7 -11 15 -34 17 -49 4 -41 24 -42
32 -2 8 43 -13 106 -34 99z"/>
<path d="M3227 83 c-10 -16 11 -39 23 -27 8 8 7 14 -4 23 -8 7 -17 8 -19 4z"/>
</g>
</svg>
